# xmcd CD database file
#
# Track frame offsets:
#	150
#	29556
#	55132
#	85319
#	116651
#	145387
#	162118
#	193440
#	211242
#	232531
#
# Disc length: 3422 seconds
#
# Revision: 0
# Processed by: cddbd v1.5PL3 Copyright (c) Steve Scherf et al.
# Submitted via: CDex 1.51
#
DISCID=880d5c0a
DTITLE=Charlie Hunter Trio - Friends Seen and Unseen
DYEAR=2004
DGENRE=Jazz
TTITLE0=One for the Kelpers
TTITLE1=Freedom Tickler
TTITLE2=LuLu's Crawl
TTITLE3=Darkly
TTITLE4=Soweto's Where It's At
TTITLE5=Running in Fear From Imaginary Assailants
TTITLE6=Eleven Bars for Gandhi
TTITLE7=Bonus Round
TTITLE8=My Son the Hurricane
TTITLE9=Moore's Alphabet
EXTD=YEAR: 2004
EXTT0=
EXTT1=
EXTT2=
EXTT3=
EXTT4=
EXTT5=
EXTT6=
EXTT7=
EXTT8=
EXTT9=
PLAYORDER=
